<svg width="12" height="12" viewBox="0 0 12 12" fill="none" xmlns="http://www.w3.org/2000/svg">
<path d="M6.87109 6.8L11.8 6.79999C11.9104 6.79999 12 6.71045 12 6.59999V5.39999C12 5.28954 11.9104 5.19999 11.8 5.19999L6.87109 5.2L6.87109 0.2C6.87109 0.089543 6.78155 -5.81926e-09 6.67109 0H5.47109C5.36064 5.81926e-09 5.27109 0.089543 5.27109 0.2V5.2L0.2 5.20001C0.0895428 5.20001 0 5.28955 0 5.40001V6.60001C0 6.71047 0.0895432 6.80001 0.2 6.80001L5.27109 6.8L5.27109 11.8C5.27109 11.9104 5.36064 12 5.47109 12H6.67109C6.78155 12 6.87109 11.9104 6.87109 11.8L6.87109 6.8Z" fill="#21222C"/>
</svg>
